<?xml version="1.0" encoding="UTF-8"?>
<svg width="800" height="400" viewBox="0 0 800 400" xmlns="http://www.w3.org/2000/svg">
    <!-- Background -->
    <rect width="800" height="400" fill="#0a0a0a"/>
    
    <!-- Grid lines -->
    <g stroke="#154e33" stroke-width="0.5" opacity="0.3">
        <g id="vertical-lines">
            <line x1="100" y1="0" x2="100" y2="400"/>
            <line x1="200" y1="0" x2="200" y2="400"/>
            <line x1="300" y1="0" x2="300" y2="400"/>
            <line x1="400" y1="0" x2="400" y2="400"/>
            <line x1="500" y1="0" x2="500" y2="400"/>
            <line x1="600" y1="0" x2="600" y2="400"/>
            <line x1="700" y1="0" x2="700" y2="400"/>
        </g>
        <g id="horizontal-lines">
            <line x1="0" y1="100" x2="800" y2="100"/>
            <line x1="0" y1="200" x2="800" y2="200"/>
            <line x1="0" y1="300" x2="800" y2="300"/>
        </g>
    </g>
    
    <!-- Map elements -->
    <g fill="none" stroke="#154e33" stroke-width="2">
        <!-- Area outlines -->
        <path d="M200,150 C250,100 350,100 400,150 S500,200 550,150" />
        <path d="M300,250 C350,200 450,200 500,250 S600,300 650,250" />
        
        <!-- Points of interest -->
        <circle cx="300" cy="150" r="10" fill="#154e33" opacity="0.5"/>
        <circle cx="450" cy="200" r="8" fill="#154e33" opacity="0.5"/>
        <circle cx="600" cy="250" r="12" fill="#154e33" opacity="0.5"/>
        
        <!-- Redacted areas -->
        <rect x="350" y="150" width="100" height="50" fill="#000" stroke="none"/>
        <rect x="500" y="200" width="80" height="60" fill="#000" stroke="none"/>
    </g>
    
    <!-- Coordinates -->
    <g font-family="monospace" font-size="10" fill="#154e33">
        <text x="10" y="20">[REDACTED]</text>
        <text x="710" y="380">[REDACTED]</text>
        <text x="350" y="30">SECTOR A-7</text>
        <text x="500" y="180">SECTOR B-3</text>
    </g>
</svg> 